<svg version="1.2" xmlns="http://www.w3.org/2000/svg" viewBox="0 0 442 467" width="442" height="467">
	<title>Ai File</title>
	<style>
		.s0 { fill: #326ce5 } 
		.s1 { fill: #ffffff } 
	</style>
	<g id="Layer 1">
		<path id="&lt;Path&gt;" class="s0" d="m1233.3 1315.3h-2024.6v-2024.6h2024.6z"/>
		<g id="&lt;Group&gt;">
			<g id="&lt;Group&gt;">
				<path id="&lt;Compound Path&gt;" fill-rule="evenodd" class="s1" d="m441.1 86.1v51.4l-35.9 20.8v161.1l-139.6 80.6v41.3l-44.6 25.7-44.6-25.7v-41.3l-139.6-80.6v-161.1l-35.9-20.8v-51.4l44.6-25.8 35.9 20.8 139.6-80.6 139.6 80.6 35.9-20.8zm-220.1 298.1l-27.2 15.7v31.5l27.2 15.7 27.3-15.7v-31.5zm-202.8-256.6l27.3 15.8 27.3-15.8v-31.4l-27.3-15.8-27.3 15.8zm333.7-31.5l-122.2-70.6v60.7l97 56 25.2-14.6zm-74.4 74.4l31.9-18.4-79.7-46v36.8l-8.7-5-8.6 5v-36.8l-79.8 46 31.9 18.4-8.7 5v10l-31.8-18.4v92.1l31.8-18.4v10l8.7 5-31.9 18.3 79.8 46.1v-36.8l8.6 5 8.7-5v36.8l79.7-46.1-31.9-18.3 8.7-5v-10l31.8 18.4v-92.1l-31.8 18.4v-10zm-65.2-145l-122.3 70.6v31.4l25.3 14.6 97-56zm-158.2 132.9v141.2l52.6-30.4v-112l-25.3-14.6zm8.6 156.2l122.1 70.5 27.5-15.8v-29l-97-56zm194.3 70.5l122.1-70.5-52.6-30.4-97 56v29zm130.8-85.5v-141.2l-27.3-15.7-25.3 14.6v112zm35.9-171.9v-31.5l-27.2-15.8-27.3 15.8v31.5l27.3 15.7z"/>
			</g>
			<g id="&lt;Group&gt;">
				<path id="&lt;Compound Path&gt;" fill-rule="evenodd" class="s1" d="m204 263.3q-0.1 0-0.1 0.1c-0.4 0.9-1.1 1.5-2.1 1.9-0.2 0.1-0.5 0.4-0.6 0.7-0.7 1.5-1.5 3.1-2.1 4.7-0.5 1.2-0.7 2.5-1.2 3.7-0.3 1.1-0.8 2.1-1.3 3-0.8 1.4-2.7 2-4.5 1.3-1.6-0.6-2.2-1.9-2.4-3.4 0-0.5 0.2-1.2 0.5-1.7 0.8-1.4 1.7-2.8 2.6-4.3q1.7-2.9 3.2-5.9c0.2-0.3 0.2-0.8 0.1-1.2-0.2-0.7-0.3-1.3 0.1-1.9 0.2-0.4 0.1-0.7-0.3-1q-5.7-3.5-10.3-8.4c-3.7-4-6.6-8.5-8.8-13.5-0.6-1.3-1.1-2.6-1.6-4-0.1-0.3-0.2-0.5-0.6-0.4-0.6 0.2-1.1 0.3-1.7-0.1-0.8-0.5-1.7-0.5-2.6-0.2-1.4 0.4-2.9 0.8-4.3 1.3-1.1 0.3-2.2 0.8-3.3 1.3-1.3 0.6-2.7 0.9-4.1 0.7-2.2-0.3-3.5-2.6-3-4.6 0.6-2.1 2.2-2.8 4-3 1.6-0.2 3.1-0.2 4.6-0.4q2.9-0.4 5.7-1.1c0.4-0.1 0.9-0.4 1.1-0.8 0.5-0.6 1-1 1.7-1.1 0.4-0.1 0.5-0.4 0.4-0.8-0.5-3.8-0.5-7.6-0.1-11.4 0.3-3 1-6 1.8-8.9q2-6.4 5.6-12c0.3-0.3 0.3-0.6-0.1-0.9-0.5-0.3-0.8-0.8-0.9-1.5-0.1-0.7-0.5-1.2-1.1-1.7-2.1-1.7-4.4-3.1-6.7-4.4q-1.2-0.7-2.3-1.6c-1.9-1.5-2-4.3-0.3-5.9 1.3-1.1 3.4-1.2 4.9 0 1.3 1.1 2.5 2.5 3.8 3.7 1.2 1.1 2.4 2.1 3.6 3.2q0.2 0.2 0.5 0.4c0.6 0.6 1.2 0.9 2.1 0.8 0.5 0 1 0.1 1.4 0.5 0.4 0.4 0.7 0.4 1.1-0.1q4-4 8.7-7.1c3.7-2.3 7.6-4.1 11.8-5.3 2.4-0.7 4.8-1.1 7.2-1.6 0.7-0.1 1.5-0.2 2.3-0.3 0.2 0 0.4-0.3 0.4-0.5 0-0.7 0.4-1.3 0.8-1.9 0.3-0.5 0.5-1.1 0.5-1.7q-0.1-3-0.4-5.9c-0.1-1.7-0.5-3.4-0.5-5-0.1-1.6 0.6-2.8 2.1-3.5 1.4-0.7 2.8-0.5 4 0.4 1 0.8 1.5 1.9 1.5 3.1-0.1 1.6-0.4 3.2-0.6 4.8-0.3 2.2-0.6 4.4-0.4 6.7 0 0.5 0.4 1 0.7 1.4 0.4 0.4 0.6 0.8 0.5 1.3 0 0.5 0.2 0.8 0.8 0.9 2.1 0.3 4.1 0.6 6.2 1.1q7.7 1.8 14.4 6c2.8 1.8 5.4 3.7 7.8 6q0.7 0.7 1.3 1.4c0.3 0.3 0.5 0.3 0.8 0 0.4-0.4 1-0.7 1.7-0.6 1.1 0.1 1.9-0.6 2.6-1.2 1-0.7 1.9-1.6 2.7-2.4 0.8-0.8 1.5-1.7 2.3-2.5q1.2-1.2 2.5-2.3c1.4-1.2 4.1-1.1 5.4 0.7 1.1 1.7 1 3.8-0.7 5.2-1.4 1-2.9 1.8-4.3 2.8-1.8 1.2-3.6 2.4-5.3 3.7-0.4 0.3-0.6 0.8-0.7 1.3-0.1 0.7-0.4 1.2-1 1.6-0.3 0.3-0.4 0.5-0.1 0.9q2.8 4.3 4.6 9.1c1 2.6 1.8 5.2 2.3 8q0.6 3.3 0.8 6.7c0.1 2.1 0 4.3 0 6.4 0 0.7-0.2 1.4-0.3 2.2 0 0.3 0 0.5 0.4 0.6 0.7 0.1 1.2 0.5 1.6 1 0.7 1.1 1.9 1.2 3 1.4 2.6 0.3 5.3 0.5 7.9 0.9 1.4 0.2 2.9 0.4 3.9 1.7 1 1.3 1.1 3 0.2 4.4-0.8 1.3-2.5 1.9-4 1.6-1.8-0.3-3.5-1.2-5.2-1.8q-2.9-0.9-5.8-1.6c-0.5-0.2-1.2 0.1-1.8 0.3-0.4 0.2-0.8 0.3-1.2 0.2-0.7-0.2-0.9-0.1-1.1 0.6-1.4 4.4-3.5 8.4-6.2 12.3-1.6 2.3-3.3 4.5-5.4 6.4-1.9 1.8-3.9 3.4-5.9 5.1-1 0.8-2 1.4-3.1 2-0.5 0.3-0.5 0.6-0.3 1.1 0.3 0.4 0.4 0.8 0.2 1.3-0.5 1.2 0.1 2.1 0.6 3 1.1 1.9 2.3 3.9 3.5 5.8 0.8 1.2 1.6 2.4 2 3.8 0.5 2-1.1 4.4-3.2 4.5-1.9 0.2-3.2-0.5-3.9-2.3-0.7-1.5-1.1-3.2-1.8-4.8q-1.1-3-2.4-5.9c-0.2-0.4-0.7-0.7-1.2-0.9-0.6-0.2-1-0.6-1.2-1.1-0.1-0.4-0.3-0.5-0.7-0.4-1.9 0.6-3.7 1.2-5.5 1.6-1.7 0.4-3.5 0.6-5.3 1-2.7 0.4-5.4 0.3-8.1 0.3-1.9-0.1-3.7-0.4-5.5-0.6-3.2-0.5-6.3-1.4-9.3-2.5zm-21.4-44.5c0 0.8 0 1.6 0 2.3 0.1 1 0.2 1.2 1.1 0.7q0.1 0 0.3-0.1 3.9-1.1 7.8-2.2 2.9-0.8 5.7-1.6 2.2-0.7 4.3-1.4c1.4-0.5 2.3-2.3 1.9-3.7-0.3-0.9-0.9-1.6-1.6-2.2q-4.1-3.7-8.2-7.4-2.6-2.4-5.3-4.7c-0.3-0.4-0.6-0.4-0.8 0.1-0.2 0.4-0.4 0.8-0.7 1.3-1.2 2.3-2.3 4.8-3 7.3q-0.7 2.5-1.1 5.1c-0.3 1.7-0.4 6.3-0.4 6.5zm74.5 12.5c-0.1-0.1-0.2-0.1-0.3-0.1q-3.4-0.6-6.9-1.2-2.6-0.4-5.1-0.9c-2.1-0.4-4.1-0.7-6.2-1-0.7-0.1-1.6-0.2-2.3 0-1.8 0.6-2.7 2.6-2 4.4 1 2.6 2.1 5.1 3.2 7.7q2 4.9 4 9.8c0.2 0.4 0.4 0.5 0.8 0.2q4.9-3.3 8.7-7.9c2.2-2.8 4-5.9 5.4-9.2 0.3-0.6 0.5-1.2 0.7-1.8zm-63.1-40.7c0.3 0.3 0.5 0.4 0.6 0.5q5.4 3.8 10.8 7.6c1.6 1.2 3.1 2.3 4.8 3.4 2 1.2 4.4 0 4.8-2 0.2-1.1 0.3-2.2 0.3-3.3 0.2-2.8 0.3-5.6 0.4-8.4 0.1-0.9 0.2-1.8 0.2-2.7q0.2-2.5 0.3-5c0-0.5-0.2-0.7-0.6-0.6-0.7 0.2-1.3 0.3-1.9 0.4-2.4 0.4-4.7 1-6.9 1.9-3.4 1.4-6.6 3.2-9.5 5.5-1.1 0.8-2.1 1.7-3.3 2.7zm59.7 7.5q-0.3 0.2-0.6 0.4c-4.5 4.1-9 8.2-13.6 12.2-2.4 2.2-1.4 5.1 0.9 5.8q1.4 0.5 2.7 0.9 3.3 0.9 6.5 1.9 2.9 0.8 5.7 1.6c1.3 0.4 2.6 0.7 3.9 1.1 0.6-8.6-1-16.5-5.5-23.9zm-45 56.4c0.3 0.1 0.5 0.2 0.6 0.3q4.8 1.5 9.7 1.8c2.7 0.1 5.5 0 8.2-0.5q2.7-0.6 5.4-1.3c0.5-0.1 0.7-0.3 0.4-0.8-2.1-3.7-4.2-7.4-6.2-11.2-1.1-1.8-2-3.7-3.2-5.4-1.3-2.1-4.1-2-5.4 0.1-0.8 1.2-1.4 2.5-2.1 3.7q-2.6 4.6-5.1 9.3c-0.7 1.3-1.5 2.6-2.3 4zm-4.5-26.5c-0.7 0.1-1.7 0.3-2.6 0.4-1.6 0.3-3.2 0.6-4.8 0.9q-2.8 0.4-5.5 0.9-2.9 0.5-5.7 1c-0.6 0.1-0.7 0.1-0.5 0.7q2.2 5.7 6 10.4c2.5 3.1 5.4 5.7 8.7 7.9 0.3 0.2 0.5 0.2 0.6-0.2q0.8-2 1.7-4 1.7-4.1 3.4-8.2c0.7-1.7 1.4-3.3 2-5 1-2.5-0.5-4.8-3.3-4.8zm21.5-46.8c0.2 2.4 0.3 4.8 0.5 7.3q0.3 5.4 0.6 10.8c0.1 2 1.6 3.5 3.5 3.2 0.9-0.2 1.7-0.7 2.5-1.2 3.2-2.2 6.5-4.6 9.7-6.9 1.5-1 2.9-1.9 4.3-3 1-0.7 1-0.8 0-1.5-1.5-1.3-3-2.6-4.7-3.7-4.8-3.3-10.1-5.2-15.8-6.1-0.4 0-0.6 0.1-0.6 0.5 0 0.2 0 0.4 0 0.6zm-4.7 30.9c-0.8 0-1.7 0-2.5 0-0.2 0-0.6 0.1-0.8 0.3q-1.6 1.9-3.1 3.9c-0.2 0.3-0.2 0.7-0.2 1q0.5 2.1 1 4.1c0.1 0.5 0.2 1 0.8 1.3 1.4 0.6 2.8 1.4 4.3 2 0.2 0.1 0.6 0.2 0.8 0.1q2.3-1.1 4.5-2.2c0.3-0.1 0.5-0.4 0.6-0.6q0.6-2.5 1.1-5c0.1-0.2 0-0.4-0.1-0.6q-1.6-2-3.2-3.9c-0.2-0.2-0.5-0.4-0.8-0.4-0.8 0-1.6 0-2.4 0z"/>
			</g>
		</g>
	</g>
</svg>